<?xml version="1.0" encoding="UTF-8" standalone="no"?>
<!-- Created with Inkscape (http://www.inkscape.org/) -->

<svg
   xmlns:dc="http://purl.org/dc/elements/1.1/"
   xmlns:cc="http://creativecommons.org/ns#"
   xmlns:rdf="http://www.w3.org/1999/02/22-rdf-syntax-ns#"
   xmlns:svg="http://www.w3.org/2000/svg"
   xmlns="http://www.w3.org/2000/svg"
   xmlns:sodipodi="http://sodipodi.sourceforge.net/DTD/sodipodi-0.dtd"
   xmlns:inkscape="http://www.inkscape.org/namespaces/inkscape"
   version="1.1"
   width="952.40002"
   height="680.47736"
   id="svg3832"
   inkscape:version="0.48.5 r10040"
   sodipodi:docname="timecardyelling.svg"
   inkscape:export-filename="/Users/jhamner/Dropbox/timecardyelling.png"
   inkscape:export-xdpi="300"
   inkscape:export-ydpi="300">
  <sodipodi:namedview
     pagecolor="#ffffff"
     bordercolor="#666666"
     borderopacity="1"
     objecttolerance="10"
     gridtolerance="10"
     guidetolerance="10"
     inkscape:pageopacity="0"
     inkscape:pageshadow="2"
     inkscape:window-width="1440"
     inkscape:window-height="856"
     id="namedview4201"
     showgrid="false"
     inkscape:zoom="0.63432805"
     inkscape:cx="555.07231"
     inkscape:cy="263.45682"
     inkscape:window-x="28"
     inkscape:window-y="0"
     inkscape:window-maximized="0"
     inkscape:current-layer="svg3832"
     fit-margin-top="0"
     fit-margin-left="0"
     fit-margin-right="0"
     fit-margin-bottom="0" />
  <defs
     id="defs3834" />
  <metadata
     id="metadata3837">
    <rdf:RDF>
      <cc:Work
         rdf:about="">
        <dc:format>image/svg+xml</dc:format>
        <dc:type
           rdf:resource="http://purl.org/dc/dcmitype/StillImage" />
        <dc:title />
      </cc:Work>
    </rdf:RDF>
  </metadata>
  <g
     transform="translate(-54.975,-49.615)"
     style="font-size:12px;font-style:normal;font-weight:normal;line-height:125%;letter-spacing:0px;word-spacing:0px;fill:#db0000;fill-opacity:1;stroke:#000000;stroke-width:3;stroke-miterlimit:4;stroke-opacity:1;font-family:Sans"
     id="flowRoot4853">
    <path
       d="m 56.475,168.875 40.48,0 0,-6.56 -10.24,-0.8 -2.72,-2.24 0,-88.16 2.72,-2.24 10.24,-0.96 0,-6.4 -40.48,0 0,6.4 10.24,0.96 2.72,2.24 0,88.16 -2.72,2.24 -10.24,0.8 0,6.56"
       style="font-size:160px;text-align:center;line-height:125%;text-anchor:middle;fill:#db0000;stroke:#000000;font-family:Bitstream Charter;-inkscape-font-specification:Bitstream Charter"
       id="path3106" />
    <path
       d="m 107.55,168.875 35.04,0 0,-5.76 -7.68,-0.8 -2.72,-2.56 0,-53.6 c 6.87999,-3.52 12.80001,-5.28 17.92,-5.28 11.83999,0 16.16,4.80001 16.16,16.48 l 0,42.4 -2.72,2.56 -7.68,0.8 0,5.76 35.04,0 0,-5.76 -8.64,-0.8 -2.72,-2.56 0,-45.12 c 0,-15.999984 -7.68001,-24.32 -21.6,-24.32 -6.87999,0 -15.04001,3.680006 -25.76,9.6 l 0,-8.8 -6.08,0 -18.56,5.76 0,4.96 11.36,0 0,57.92 -2.72,2.56 -8.64,0.8 0,5.76"
       style="font-size:160px;text-align:center;line-height:125%;text-anchor:middle;fill:#db0000;stroke:#000000;font-family:Bitstream Charter;-inkscape-font-specification:Bitstream Charter"
       id="path3108" />
    <path
       d="m 287.8225,59.595 -34.72,10.4 0,6.72 25.12,-4.48 0,86.08 -1.92,2.72 -18.4,0.96 0,6.88 53.6,0 0,-6.72 -17.28,-0.8 -1.92,-2.4 0,-99.36 -4.48,0"
       style="font-size:160px;text-align:center;line-height:125%;text-anchor:middle;fill:#db0000;stroke:#000000;font-family:Bitstream Charter;-inkscape-font-specification:Bitstream Charter"
       id="path3110" />
    <path
       d="m 343.285,61.515 0,52.8 c 3.52,-0.64 8.16001,-0.96 14.08,-0.96 22.23998,0 33.28,7.52002 33.28,24 0,14.87999 -10.24002,25.6 -25.28,25.6 -3.52,0 -7.2,-0.64 -10.72,-1.92 l -6.4,-13.76 c -1.6,-0.32 -2.88,-0.48 -3.84,-0.48 -5.43999,0 -9.28,3.52 -9.28,8.48 0,7.67999 11.04002,15.04 27.52,15.04 26.23997,0 42.72,-15.52002 42.72,-36.16 0,-18.23998 -13.60002,-30.72 -35.04,-30.72 -5.11999,0 -10.88001,0.8 -17.12,2.56 l 0,-32 47.36,0 0,-12.48 -57.28,0"
       style="font-size:160px;text-align:center;line-height:125%;text-anchor:middle;fill:#db0000;stroke:#000000;font-family:Bitstream Charter;-inkscape-font-specification:Bitstream Charter"
       id="path3112" />
    <path
       d="m 515.6025,93.835 c -5.43999,-2.399998 -11.68001,-3.52 -18.72,-3.52 -18.23998,0 -28.32,8.320014 -28.32,22.4 0,10.71999 7.04001,15.84001 20.64,21.92 10.55999,4.8 16.32,7.68001 16.32,16 0,7.51999 -5.76001,12.96 -15.04,12.96 -4.64,0 -9.12,-1.28 -13.6,-3.84 l -1.92,-13.6 -7.68,0 0,20.8 c 5.59999,2.08 12.64001,3.36 20.8,3.36 18.87998,0 29.92,-9.12001 29.92,-24 0,-5.91999 -2.24,-10.72 -6.08,-13.76 -5.27999,-4.32 -11.36001,-6.56 -16.96,-9.28 -8.95999,-4.32 -13.6,-7.68001 -13.6,-14.56 0,-7.19999 4.80001,-11.52 13.28,-11.52 3.84,0 7.68,1.120002 11.84,3.36 l 1.28,11.36 7.84,0 0,-18.08"
       style="font-size:160px;text-align:center;line-height:125%;text-anchor:middle;fill:#db0000;stroke:#000000;font-family:Bitstream Charter;-inkscape-font-specification:Bitstream Charter"
       id="path3114" />
    <path
       d="m 596.305,151.915 c -9.11999,6.07999 -17.12001,9.28 -25.12,9.28 -16.15998,0 -26.88,-12.16002 -26.88,-32.64 0,-0.48 0,-1.12 0,-1.76 l 51.84,0 c 0.16,-1.76 0.16,-3.36 0.16,-4.96 0,-19.67998 -11.36002,-31.52 -28.8,-31.52 -21.43998,0 -36.96,16.48002 -36.96,40.64 0,23.51998 14.56002,39.36 35.68,39.36 10.07999,0 20.48001,-3.20001 30.08,-9.6 l 0,-8.8 m -14.24,-31.84 -36.96,0 c 0.96,-13.59999 10.08001,-22.56 20.32,-22.56 10.71999,0 16.64,7.04001 16.64,20 0,0.8 0,1.76 0,2.56"
       style="font-size:160px;text-align:center;line-height:125%;text-anchor:middle;fill:#db0000;stroke:#000000;font-family:Bitstream Charter;-inkscape-font-specification:Bitstream Charter"
       id="path3116" />
    <path
       d="m 671.0625,162.155 0,-8.32 c -6.71999,4.48 -13.28001,6.72 -20.32,6.72 -16.63998,0 -27.2,-11.68002 -27.2,-31.36 0,-20.15998 9.76001,-32.48 23.52,-32.48 2.72,0 5.28,0.800001 7.68,2.24 l 0,13.12 c 2.4,1.6 4.8,2.4 7.2,2.4 5.43999,0 8.96,-3.36001 8.96,-8.48 0,-9.279991 -8.64002,-15.68 -24,-15.68 -22.39998,0 -37.92,16.16002 -37.92,40 0,23.67998 14.24002,39.68 36,39.68 8.63999,0 17.28001,-2.72001 26.08,-7.84"
       style="font-size:160px;text-align:center;line-height:125%;text-anchor:middle;fill:#db0000;stroke:#000000;font-family:Bitstream Charter;-inkscape-font-specification:Bitstream Charter"
       id="path3118" />
    <path
       d="m 717.3525,90.315 c -21.59998,0 -37.12,16.16002 -37.12,40 0,23.67998 15.68002,40 37.12,40 21.43998,0 37.28,-16.32002 37.28,-40 0,-23.67998 -15.68002,-40 -37.28,-40 m 0,6.88 c 12.95999,0 22.24,12.48002 22.24,33.12 0,20.79998 -9.28001,33.12 -22.24,33.12 -12.79999,0 -22.08,-12.48002 -22.08,-33.12 0,-20.79998 9.12001,-33.12 22.08,-33.12"
       style="font-size:160px;text-align:center;line-height:125%;text-anchor:middle;fill:#db0000;stroke:#000000;font-family:Bitstream Charter;-inkscape-font-specification:Bitstream Charter"
       id="path3120" />
    <path
       d="m 765.3625,168.875 35.04,0 0,-5.76 -7.68,-0.8 -2.72,-2.56 0,-53.6 c 6.87999,-3.52 12.80001,-5.28 17.92,-5.28 11.83999,0 16.16,4.80001 16.16,16.48 l 0,42.4 -2.72,2.56 -7.68,0.8 0,5.76 35.04,0 0,-5.76 -8.64,-0.8 -2.72,-2.56 0,-45.12 c 0,-15.999984 -7.68001,-24.32 -21.6,-24.32 -6.87999,0 -15.04001,3.680006 -25.76,9.6 l 0,-8.8 -6.08,0 -18.56,5.76 0,4.96 11.36,0 0,57.92 -2.72,2.56 -8.64,0.8 0,5.76"
       style="font-size:160px;text-align:center;line-height:125%;text-anchor:middle;fill:#db0000;stroke:#000000;font-family:Bitstream Charter;-inkscape-font-specification:Bitstream Charter"
       id="path3122" />
    <path
       d="m 912.78,61.835 0,30.08 c -4.96,-1.119999 -9.76,-1.76 -14.24,-1.76 -24.31998,0 -41.28,17.12003 -41.28,42.72 0,22.39998 13.44002,37.44 30.88,37.44 8.79999,0 16.48001,-3.20001 24.64,-9.76 l 0,8.32 23.68,0 0,-5.76 -7.68,-0.8 -2.72,-2.56 0,-108.64 -6.08,0 -19.52,5.76 0,4.96 12.32,0 m 0,92.8 c -5.91999,3.68 -11.68001,5.6 -17.44,5.6 -14.39999,0 -24,-11.36002 -24,-30.08 0,-19.99998 11.20002,-32.96 27.36,-32.96 3.84,0 8.64001,0.960002 14.08,2.56 l 0,54.88"
       style="font-size:160px;text-align:center;line-height:125%;text-anchor:middle;fill:#db0000;stroke:#000000;font-family:Bitstream Charter;-inkscape-font-specification:Bitstream Charter"
       id="path3124" />
    <path
       d="m 996.8525,93.835 c -5.43999,-2.399998 -11.68001,-3.52 -18.72,-3.52 -18.23998,0 -28.32,8.320014 -28.32,22.4 0,10.71999 7.04001,15.84001 20.64,21.92 10.55999,4.8 16.32,7.68001 16.32,16 0,7.51999 -5.76001,12.96 -15.04,12.96 -4.64,0 -9.12,-1.28 -13.6,-3.84 l -1.92,-13.6 -7.68,0 0,20.8 c 5.59999,2.08 12.64001,3.36 20.8,3.36 18.87998,0 29.92,-9.12001 29.92,-24 0,-5.91999 -2.24,-10.72 -6.08,-13.76 -5.27999,-4.32 -11.36001,-6.56 -16.96,-9.28 -8.95999,-4.32 -13.6,-7.68001 -13.6,-14.56 0,-7.19999 4.80001,-11.52 13.28,-11.52 3.84,0 7.68,1.120002 11.84,3.36 l 1.28,11.36 7.84,0 0,-18.08"
       style="font-size:160px;text-align:center;line-height:125%;text-anchor:middle;fill:#db0000;stroke:#000000;font-family:Bitstream Charter;-inkscape-font-specification:Bitstream Charter"
       id="path3126" />
    <path
       d="m 76.88125,368.875 40.48,0 0,-6.56 -10.24,-0.8 -2.72,-2.24 0,-88.16 2.72,-2.24 10.24,-0.96 0,-6.4 -40.48,0 0,6.4 10.24,0.96 2.72,2.24 0,88.16 -2.72,2.24 -10.24,0.8 0,6.56"
       style="font-size:160px;text-align:center;line-height:125%;text-anchor:middle;fill:#db0000;stroke:#000000;font-family:Bitstream Charter;-inkscape-font-specification:Bitstream Charter"
       id="path3128" />
    <path
       d="m 222.57125,293.835 c -5.43999,-2.4 -11.68001,-3.52 -18.72,-3.52 -18.23998,0 -28.32,8.32001 -28.32,22.4 0,10.71999 7.04001,15.84001 20.64,21.92 10.55999,4.8 16.32,7.68001 16.32,16 0,7.51999 -5.76001,12.96 -15.04,12.96 -4.64,0 -9.12,-1.28 -13.6,-3.84 l -1.92,-13.6 -7.68,0 0,20.8 c 5.59999,2.08 12.64001,3.36 20.8,3.36 18.87998,0 29.92,-9.12001 29.92,-24 0,-5.91999 -2.24,-10.72 -6.08,-13.76 -5.27999,-4.32 -11.36001,-6.56 -16.96,-9.28 -8.95999,-4.32 -13.6,-7.68001 -13.6,-14.56 0,-7.19999 4.80001,-11.52 13.28,-11.52 3.84,0 7.68,1.12 11.84,3.36 l 1.28,11.36 7.84,0 0,-18.08"
       style="font-size:160px;text-align:center;line-height:125%;text-anchor:middle;fill:#db0000;stroke:#000000;font-family:Bitstream Charter;-inkscape-font-specification:Bitstream Charter"
       id="path3130" />
    <path
       d="m 245.67375,301.515 0,51.68 c 0,11.35999 3.36001,16.16 16.64,16.16 6.23999,0 13.44001,-1.12 20.96,-3.52 l 0,-5.92 c -3.68,0.8 -7.36,1.28 -11.04,1.28 -11.19999,0 -13.28,-5.28001 -13.28,-17.44 l 0,-42.24 24.32,0 0,-7.52 -24.32,0 0,-16.96 -5.92,0 -6.88,14.88 -10.56,4.64 0,4.96 10.08,0"
       style="font-size:160px;text-align:center;line-height:125%;text-anchor:middle;fill:#db0000;stroke:#000000;font-family:Bitstream Charter;-inkscape-font-specification:Bitstream Charter"
       id="path3132" />
    <path
       d="m 338.47125,359.595 2.08,9.28 22.56,0 0,-5.76 -8.48,-0.8 -2.88,-2.56 0,-46.4 c 0,-16.15998 -7.04002,-23.04 -23.84,-23.04 -20.15998,0 -32.32,8.32001 -32.32,18.08 0,3.84 1.28,4.96 4.96,4.96 l 11.04,0 0,-13.44 c 4.32,-1.76 8.16,-2.56 12.16,-2.56 11.51999,0 14.72,5.28001 14.72,17.92 l 0,5.12 c -31.99997,7.67999 -46.72,12.48002 -46.72,29.12 0,11.99999 7.84001,20.48 20.48,20.48 7.67999,0 16.16001,-3.52001 26.24,-10.4 m 0,-5.44 c -7.99999,4.64 -14.56001,7.2 -19.84,7.2 -7.99999,0 -12.8,-5.28001 -12.8,-13.12 0,-11.67999 10.08002,-16.00001 32.64,-22.24 l 0,28.16"
       style="font-size:160px;text-align:center;line-height:125%;text-anchor:middle;fill:#db0000;stroke:#000000;font-family:Bitstream Charter;-inkscape-font-specification:Bitstream Charter"
       id="path3134" />
    <path
       d="m 371.08125,368.875 38.56,0 0,-5.76 -11.2,-0.8 -2.72,-2.56 0,-45.76 c 6.55999,-7.67999 12.16001,-11.68 17.44,-11.68 3.36,0 6.08,1.28 8.16,3.84 l 5.12,0 0,-13.76 c -3.36,-1.44 -6.4,-2.08 -9.6,-2.08 -1.28,0 -2.72,0 -4,0.32 -5.75999,4.64 -11.52001,9.76001 -17.12,15.52 l 0,-15.04 -6.08,0 -18.56,5.76 0,4.96 11.36,0 0,57.92 -2.88,2.56 -8.48,0.8 0,5.76"
       style="font-size:160px;text-align:center;line-height:125%;text-anchor:middle;fill:#db0000;stroke:#000000;font-family:Bitstream Charter;-inkscape-font-specification:Bitstream Charter"
       id="path3136" />
    <path
       d="m 441.61125,301.515 0,51.68 c 0,11.35999 3.36001,16.16 16.64,16.16 6.23999,0 13.44001,-1.12 20.96,-3.52 l 0,-5.92 c -3.68,0.8 -7.36,1.28 -11.04,1.28 -11.19999,0 -13.28,-5.28001 -13.28,-17.44 l 0,-42.24 24.32,0 0,-7.52 -24.32,0 0,-16.96 -5.92,0 -6.88,14.88 -10.56,4.64 0,4.96 10.08,0"
       style="font-size:160px;text-align:center;line-height:125%;text-anchor:middle;fill:#db0000;stroke:#000000;font-family:Bitstream Charter;-inkscape-font-specification:Bitstream Charter"
       id="path3138" />
    <path
       d="m 525.19975,299.611 0,5.328 8.784,0.864 24.192,62.496 c -3.6,10.22399 -7.776,17.424 -11.664,21.6 l -13.824,-5.472 c -2.448,2.304 -3.744,4.896 -3.744,7.776 0,4.752 3.88801,8.064 9.936,8.064 9.35999,0 16.27201,-7.92002 23.04,-24.192 l 28.8,-69.984 8.352,-1.152 0,-5.328 -25.632,0 0,5.328 7.776,0.576 1.152,2.304 -18,44.784 -17.28,-44.784 1.728,-2.304 7.632,-0.576 0,-5.328 -31.248,0"
       style="font-size:144px;font-variant:normal;font-stretch:normal;text-align:start;line-height:125%;writing-mode:lr-tb;text-anchor:start;fill:#db0000;stroke:#000000;font-family:Bitstream Charter;-inkscape-font-specification:Bitstream Charter"
       id="path3140" />
    <path
       d="m 661.012,353.611 c -8.20799,5.47199 -15.40801,8.352 -22.608,8.352 -14.54399,0 -24.192,-10.94402 -24.192,-29.376 0,-0.432 0,-1.008 0,-1.584 l 46.656,0 c 0.144,-1.584 0.144,-3.024 0.144,-4.464 0,-17.71198 -10.22402,-28.368 -25.92,-28.368 -19.29598,0 -33.264,14.83202 -33.264,36.576 0,21.16798 13.10402,35.424 32.112,35.424 9.07199,0 18.43201,-2.88001 27.072,-8.64 l 0,-7.92 m -12.816,-28.656 -33.264,0 c 0.864,-12.23999 9.07201,-20.304 18.288,-20.304 9.64799,0 14.976,6.33601 14.976,18 0,0.72 0,1.584 0,2.304"
       style="font-size:144px;font-variant:normal;font-stretch:normal;text-align:start;line-height:125%;writing-mode:lr-tb;text-anchor:start;fill:#db0000;stroke:#000000;font-family:Bitstream Charter;-inkscape-font-specification:Bitstream Charter"
       id="path3142" />
    <path
       d="m 671.12575,368.875 33.696,0 0,-5.184 -8.208,-0.72 -2.592,-2.304 0,-97.776 -5.472,0 -17.568,5.184 0,4.464 11.088,0 0,88.128 -2.448,2.304 -8.496,0.72 0,5.184"
       style="font-size:144px;font-variant:normal;font-stretch:normal;text-align:start;line-height:125%;writing-mode:lr-tb;text-anchor:start;fill:#db0000;stroke:#000000;font-family:Bitstream Charter;-inkscape-font-specification:Bitstream Charter"
       id="path3144" />
    <path
       d="m 711.62575,368.875 33.696,0 0,-5.184 -8.208,-0.72 -2.592,-2.304 0,-97.776 -5.472,0 -17.568,5.184 0,4.464 11.088,0 0,88.128 -2.448,2.304 -8.496,0.72 0,5.184"
       style="font-size:144px;font-variant:normal;font-stretch:normal;text-align:start;line-height:125%;writing-mode:lr-tb;text-anchor:start;fill:#db0000;stroke:#000000;font-family:Bitstream Charter;-inkscape-font-specification:Bitstream Charter"
       id="path3146" />
    <path
       d="m 770.26975,266.923 c -4.608,0 -8.352,3.6 -8.352,8.352 0,4.608 3.744,8.208 8.352,8.208 4.608,0 8.352,-3.6 8.352,-8.208 0,-4.608 -3.744,-8.352 -8.352,-8.352 m -0.576,31.968 -16.56,5.184 0,4.464 10.08,0 0,52.128 -2.448,2.304 -7.632,0.72 0,5.184 32.4,0 0,-5.184 -7.776,-0.72 -2.592,-2.304 0,-61.776 -5.472,0"
       style="font-size:144px;font-variant:normal;font-stretch:normal;text-align:start;line-height:125%;writing-mode:lr-tb;text-anchor:start;fill:#db0000;stroke:#000000;font-family:Bitstream Charter;-inkscape-font-specification:Bitstream Charter"
       id="path3148" />
    <path
       d="m 792.6325,368.875 31.536,0 0,-5.184 -6.912,-0.72 -2.448,-2.304 0,-48.24 c 6.19199,-3.168 11.52,-4.752 16.128,-4.752 10.65599,0 14.544,4.32001 14.544,14.832 l 0,38.16 -2.448,2.304 -6.912,0.72 0,5.184 31.536,0 0,-5.184 -7.776,-0.72 -2.448,-2.304 0,-40.608 c 0,-14.39999 -6.91201,-21.888 -19.44,-21.888 -6.19199,0 -13.53601,3.31201 -23.184,8.64 l 0,-7.92 -5.472,0 -16.704,5.184 0,4.464 10.224,0 0,52.128 -2.448,2.304 -7.776,0.72 0,5.184"
       style="font-size:144px;font-variant:normal;font-stretch:normal;text-align:start;line-height:125%;writing-mode:lr-tb;text-anchor:start;fill:#db0000;stroke:#000000;font-family:Bitstream Charter;-inkscape-font-specification:Bitstream Charter"
       id="path3150" />
    <path
       d="m 923.29225,302.203 c -5.47199,-2.736 -10.80001,-4.032 -16.272,-4.032 -16.99198,0 -27.936,9.79201 -27.936,23.76 0,10.79999 6.76801,19.296 17.856,21.744 -4.608,5.47199 -6.912,9.936 -6.912,13.68 0,2.304 0.576,4.464 1.44,6.48 -9.79199,1.728 -15.552,8.64001 -15.552,17.856 0,11.51999 9.50402,18.576 26.064,18.576 10.94399,0 20.88001,-3.31201 28.512,-9.504 5.61599,-4.608 8.64,-10.80001 8.64,-16.128 0,-10.65599 -7.48802,-15.12 -24.48,-17.712 l -13.824,-2.16 c -0.144,-1.584 -0.288,-2.736 -0.288,-3.456 0,-2.304 0.576,-4.464 1.584,-6.48 0.864,0 1.728,0 2.448,0 16.70398,0 27.504,-9.64801 27.504,-22.464 0,-5.03999 -1.296,-9.216 -4.032,-13.392 l 15.84,0 0,-6.768 -20.592,0 m -17.712,1.584 c 8.35199,0 14.112,6.76801 14.112,17.712 0,10.79999 -5.76001,17.712 -14.112,17.712 -8.35199,0 -14.112,-6.91201 -14.112,-17.712 0,-11.08799 5.76001,-17.712 14.112,-17.712 m -5.76,60.768 13.968,2.592 c 10.07999,1.872 14.688,3.45601 14.688,11.232 0,8.06399 -8.64001,15.264 -21.456,15.264 -11.80799,0 -19.584,-6.62401 -19.584,-14.976 0,-6.33599 4.46401,-11.664 12.384,-14.112"
       style="font-size:144px;font-variant:normal;font-stretch:normal;text-align:start;line-height:125%;writing-mode:lr-tb;text-anchor:start;fill:#db0000;stroke:#000000;font-family:Bitstream Charter;-inkscape-font-specification:Bitstream Charter"
       id="path3152" />
    <path
       d="m 965.54725,351.883 c -5.03999,0 -9.216,4.03201 -9.216,9.216 0,5.18399 4.17601,9.072 9.216,9.072 5.03999,0 9.072,-4.03201 9.072,-9.072 0,-5.18399 -4.03201,-9.216 -9.072,-9.216"
       style="font-size:144px;font-variant:normal;font-stretch:normal;text-align:start;line-height:125%;writing-mode:lr-tb;text-anchor:start;fill:#db0000;stroke:#000000;font-family:Bitstream Charter;-inkscape-font-specification:Bitstream Charter"
       id="path3154" />
  </g>
  <g
     id="g5671"
     transform="translate(-43.9397,-51.191471)">
    <path
       inkscape:connector-curvature="0"
       id="path3768"
       d="m 536.10283,483.40682 -46.57006,38.5962 19.60633,14.70139 2.50607,-1.97001 c -17.54266,20.57163 -28.23687,47.91509 -28.23687,77.92947 0,63.94827 48.55653,115.78859 108.44459,115.78859 59.88807,0 108.43119,-51.84032 108.43119,-115.78859 0,-63.94827 -48.54312,-115.78859 -108.43119,-115.78859 -16.3061,0 -31.77158,3.85027 -45.64536,10.73457 l 2.7607,-2.15763 -12.8654,-22.0454 z"
       style="fill:#000000;fill-opacity:1;stroke:#000000;stroke-width:6.43269968;stroke-linejoin:miter;stroke-miterlimit:4;stroke-opacity:1;stroke-dasharray:none;stroke-dashoffset:0" />
    <path
       sodipodi:nodetypes="csscsssssssscsssscssssssssssscsssssssssscsssssc"
       inkscape:connector-curvature="0"
       id="path3774"
       d="m 504.24183,493.20545 c 0.81685,-1.6337 8.14718,8.69719 7.96429,8.57693 -7.00536,-4.60665 -9.18957,-7.5325 -9.18957,-11.02749 0,-0.40842 0.12915,-0.83781 0,-1.22527 0.73851,-2.21768 -1.98488,-2.2788 -2.45055,-3.67583 -0.25831,-0.77493 0.3653,-1.71994 0,-2.45055 -0.18266,-0.36531 -0.93648,0.2888 -1.22528,0 -0.0394,-0.0394 0,-3.37867 0,-3.67583 0,-0.89945 -0.21358,-6.9245 0,-7.35166 0.25831,-0.51662 0.81685,-0.81685 1.22528,-1.22527 0.40842,-0.40843 0.70865,-0.96697 1.22527,-1.22528 0.36531,-0.18265 0.93648,0.2888 1.22528,0 0.2888,-0.2888 -0.2888,-0.93648 0,-1.22528 0.2888,-0.2888 0.83781,0.12916 1.22528,0 0.86639,-0.2888 1.58415,-0.93647 2.45055,-1.22527 1.16261,-0.38754 3.63552,0.31639 4.9011,0 1.25299,-0.31325 2.42284,-0.91203 3.67583,-1.22528 0.39623,-0.0991 0.85997,0.18265 1.22528,0 0.51662,-0.25831 0.70865,-0.96697 1.22527,-1.22528 0.5233,-0.26164 5.64202,0 6.12638,0 5.30953,0 10.61906,0 15.92859,0 2.45056,0 4.9011,0 7.35166,0 0.40842,0 0.81685,0 1.22527,0 0.40843,0 0.85997,-0.18265 1.22528,0 0.51662,0.25831 0.67731,1.04263 1.22528,1.22528 0.65217,0.21739 8.75056,0 9.80221,0 0.64072,0 4.57892,0.16109 4.9011,0 0.51662,-0.25831 0.67732,-1.04262 1.22527,-1.22528 0.77494,-0.2583 1.63371,0 2.45056,0 0.40842,0 0.85997,0.18266 1.22527,0 0.51663,-0.2583 0.70866,-0.96696 1.22528,-1.22527 0.36531,-0.18266 0.93647,0.2888 1.22528,0 0.28879,-0.2888 -0.36531,-1.04262 0,-1.22528 0.73061,-0.3653 1.67562,0.25831 2.45055,0 1.09592,-0.3653 1.4173,-1.93393 2.45055,-2.45055 0.3653,-0.18265 0.85997,0.18265 1.22528,0 0.51662,-0.25831 0.70865,-0.96696 1.22527,-1.22528 0.36531,-0.18265 0.93648,0.28881 1.22528,0 0.2888,-0.2888 -0.36531,-1.04262 0,-1.22527 0.73061,-0.36531 1.67562,0.25831 2.45055,0 0.15221,-0.0507 3.57073,-3.46562 3.67583,-3.67583 0.18265,-0.36531 -0.18266,-0.85997 0,-1.22528 0.25831,-0.51662 0.96697,-0.70865 1.22527,-1.22527 0.26165,-0.5233 0,-5.64201 0,-6.12638 0,-1.20777 0,-3.65833 0,-2.45055 0,0.81685 0,3.2674 0,2.45055 0,-4.96075 0,-1.94039 0,-7.35166"
       style="fill:none;stroke:#000000;stroke-width:3.43077302;stroke-linecap:butt;stroke-linejoin:miter;stroke-miterlimit:4;stroke-opacity:1;stroke-dasharray:none" />
    <path
       sodipodi:nodetypes="cc"
       inkscape:connector-curvature="0"
       id="path3776"
       d="m 598.90858,433.17218 c 19.47209,-10.78228 22.41951,-14.54154 22.41951,-14.54154"
       style="fill:none;stroke:#000000;stroke-width:2.14423323;stroke-linecap:butt;stroke-linejoin:miter;stroke-miterlimit:4;stroke-opacity:1;stroke-dasharray:none" />
    <path
       inkscape:connector-curvature="0"
       id="path3778"
       d="m 593.68698,405.48306 -2.45055,22.78275"
       style="fill:none;stroke:#000000;stroke-width:2.14423323;stroke-linecap:butt;stroke-linejoin:miter;stroke-miterlimit:4;stroke-opacity:1;stroke-dasharray:none" />
    <path
       inkscape:connector-curvature="0"
       id="path3780"
       d="m 584.49741,433.16692 -22.05497,-2.45056"
       style="fill:none;stroke:#000000;stroke-width:2.14423323;stroke-linecap:butt;stroke-linejoin:miter;stroke-miterlimit:4;stroke-opacity:1;stroke-dasharray:none" />
    <path
       inkscape:connector-curvature="0"
       id="path3782"
       d="M 581.43422,437.45538 561.8298,448.48287"
       style="fill:none;stroke:#000000;stroke-width:2.14423323;stroke-linecap:butt;stroke-linejoin:miter;stroke-miterlimit:4;stroke-opacity:1;stroke-dasharray:2.14423315, 4.2884663;stroke-dashoffset:0" />
    <path
       inkscape:connector-curvature="0"
       id="path3784"
       d="m 594.91226,430.71636 14.70331,-19.60441"
       style="fill:none;stroke:#000000;stroke-width:2.14423323;stroke-linecap:butt;stroke-linejoin:miter;stroke-miterlimit:4;stroke-opacity:1;stroke-dasharray:2.14423315, 4.2884663;stroke-dashoffset:0" />
    <path
       inkscape:connector-curvature="0"
       id="path3786"
       d="m 586.33532,427.04054 -17.15386,-25.7308"
       style="fill:none;stroke:#000000;stroke-width:2.14423323;stroke-linecap:butt;stroke-linejoin:miter;stroke-miterlimit:4;stroke-opacity:1;stroke-dasharray:2.14423315, 4.2884663;stroke-dashoffset:0" />
    <path
       inkscape:connector-curvature="0"
       id="path3788"
       d="m 595.87342,435.7916 31.16012,14.35505"
       style="fill:none;stroke:#000000;stroke-width:2.14423323;stroke-linecap:butt;stroke-linejoin:miter;stroke-miterlimit:4;stroke-opacity:1;stroke-dasharray:2.14423315, 4.2884663;stroke-dashoffset:0" />
    <path
       inkscape:connector-curvature="0"
       id="path3800"
       d="m 592.80748,439.02644 17.07494,25.65187"
       style="fill:none;stroke:#000000;stroke-width:2.14423323;stroke-linecap:butt;stroke-linejoin:miter;stroke-miterlimit:4;stroke-opacity:1;stroke-dasharray:none" />
    <path
       sodipodi:nodetypes="cc"
       inkscape:connector-curvature="0"
       id="path3828"
       d="m 672.10465,572.23575 c 0,0 31.85718,56.97534 -15.92859,107.8243"
       style="fill:none;stroke:#ffffff;stroke-width:6.43269968;stroke-linecap:butt;stroke-linejoin:miter;stroke-miterlimit:4;stroke-opacity:1;stroke-dasharray:none" />
  </g>
</svg>
