<?xml version="1.0" encoding="UTF-8" standalone="no"?>
<!-- Created with Inkscape (http://www.inkscape.org/) -->

<svg
   xmlns:dc="http://purl.org/dc/elements/1.1/"
   xmlns:cc="http://creativecommons.org/ns#"
   xmlns:rdf="http://www.w3.org/1999/02/22-rdf-syntax-ns#"
   xmlns:svg="http://www.w3.org/2000/svg"
   xmlns="http://www.w3.org/2000/svg"
   xmlns:sodipodi="http://sodipodi.sourceforge.net/DTD/sodipodi-0.dtd"
   xmlns:inkscape="http://www.inkscape.org/namespaces/inkscape"
   version="1.1"
   width="952.40002"
   height="680.47736"
   id="svg3832"
   inkscape:version="0.48.2 r9819"
   sodipodi:docname="timecardyelling.svg"
   inkscape:export-filename="/Users/jhamner/Dropbox/timecardyelling.png"
   inkscape:export-xdpi="300"
   inkscape:export-ydpi="300">
  <sodipodi:namedview
     pagecolor="#ffffff"
     bordercolor="#666666"
     borderopacity="1"
     objecttolerance="10"
     gridtolerance="10"
     guidetolerance="10"
     inkscape:pageopacity="0"
     inkscape:pageshadow="2"
     inkscape:window-width="1575"
     inkscape:window-height="1182"
     id="namedview4201"
     showgrid="false"
     inkscape:zoom="0.63432805"
     inkscape:cx="50.601478"
     inkscape:cy="74.280256"
     inkscape:window-x="2228"
     inkscape:window-y="237"
     inkscape:window-maximized="0"
     inkscape:current-layer="svg3832"
     fit-margin-top="0"
     fit-margin-left="0"
     fit-margin-right="0"
     fit-margin-bottom="0" />
  <defs
     id="defs3834" />
  <metadata
     id="metadata3837">
    <rdf:RDF>
      <cc:Work
         rdf:about="">
        <dc:format>image/svg+xml</dc:format>
        <dc:type
           rdf:resource="http://purl.org/dc/dcmitype/StillImage" />
        <dc:title />
      </cc:Work>
    </rdf:RDF>
  </metadata>
  <flowRoot
     xml:space="preserve"
     id="flowRoot4853"
     style="font-size:12px;font-style:normal;font-weight:normal;line-height:125%;letter-spacing:0px;word-spacing:0px;fill:#db0000;fill-opacity:1;stroke:#000000;stroke-width:3;stroke-miterlimit:4;stroke-opacity:1;stroke-dasharray:none;font-family:Sans"
     transform="translate(-54.975,-49.615)"><flowRegion
       id="flowRegion4855"><rect
         id="rect4857"
         width="1038.9318"
         height="735.72418"
         x="8.9178686"
         y="8.3703136"
         style="fill:#db0000;fill-opacity:1;stroke:#000000;stroke-width:3;stroke-miterlimit:4;stroke-opacity:1;stroke-dasharray:none" /></flowRegion><flowPara
       id="flowPara4859"
       style="font-size:144px;font-style:normal;font-variant:normal;font-weight:normal;font-stretch:normal;text-align:start;line-height:125%;writing-mode:lr-tb;text-anchor:start;fill:#db0000;fill-opacity:1;stroke:#000000;stroke-width:3;stroke-miterlimit:4;stroke-opacity:1;stroke-dasharray:none;font-family:Bitstream Charter;-inkscape-font-specification:Bitstream Charter"><flowSpan
   style="font-size:160px;font-style:normal;font-variant:normal;font-weight:normal;font-stretch:normal;text-align:center;line-height:125%;writing-mode:lr-tb;text-anchor:middle;fill:#db0000;fill-opacity:1;stroke:#000000;stroke-width:3;stroke-miterlimit:4;stroke-opacity:1;stroke-dasharray:none;font-family:Bitstream Charter;-inkscape-font-specification:Bitstream Charter"
   id="flowSpan4861">In 15 seconds I start </flowSpan>yelling.</flowPara></flowRoot>  <g
     id="g5671"
     transform="translate(-43.9397,-51.191471)">
    <path
       inkscape:connector-curvature="0"
       id="path3768"
       d="m 536.10283,483.40682 -46.57006,38.5962 19.60633,14.70139 2.50607,-1.97001 c -17.54266,20.57163 -28.23687,47.91509 -28.23687,77.92947 0,63.94827 48.55653,115.78859 108.44459,115.78859 59.88807,0 108.43119,-51.84032 108.43119,-115.78859 0,-63.94827 -48.54312,-115.78859 -108.43119,-115.78859 -16.3061,0 -31.77158,3.85027 -45.64536,10.73457 l 2.7607,-2.15763 -12.8654,-22.0454 z"
       style="fill:#000000;fill-opacity:1;stroke:#000000;stroke-width:6.43269968;stroke-linejoin:miter;stroke-miterlimit:4;stroke-opacity:1;stroke-dasharray:none;stroke-dashoffset:0" />
    <path
       sodipodi:nodetypes="csscsssssssscsssscssssssssssscsssssssssscsssssc"
       inkscape:connector-curvature="0"
       id="path3774"
       d="m 504.24183,493.20545 c 0.81685,-1.6337 8.14718,8.69719 7.96429,8.57693 -7.00536,-4.60665 -9.18957,-7.5325 -9.18957,-11.02749 0,-0.40842 0.12915,-0.83781 0,-1.22527 0.73851,-2.21768 -1.98488,-2.2788 -2.45055,-3.67583 -0.25831,-0.77493 0.3653,-1.71994 0,-2.45055 -0.18266,-0.36531 -0.93648,0.2888 -1.22528,0 -0.0394,-0.0394 0,-3.37867 0,-3.67583 0,-0.89945 -0.21358,-6.9245 0,-7.35166 0.25831,-0.51662 0.81685,-0.81685 1.22528,-1.22527 0.40842,-0.40843 0.70865,-0.96697 1.22527,-1.22528 0.36531,-0.18265 0.93648,0.2888 1.22528,0 0.2888,-0.2888 -0.2888,-0.93648 0,-1.22528 0.2888,-0.2888 0.83781,0.12916 1.22528,0 0.86639,-0.2888 1.58415,-0.93647 2.45055,-1.22527 1.16261,-0.38754 3.63552,0.31639 4.9011,0 1.25299,-0.31325 2.42284,-0.91203 3.67583,-1.22528 0.39623,-0.0991 0.85997,0.18265 1.22528,0 0.51662,-0.25831 0.70865,-0.96697 1.22527,-1.22528 0.5233,-0.26164 5.64202,0 6.12638,0 5.30953,0 10.61906,0 15.92859,0 2.45056,0 4.9011,0 7.35166,0 0.40842,0 0.81685,0 1.22527,0 0.40843,0 0.85997,-0.18265 1.22528,0 0.51662,0.25831 0.67731,1.04263 1.22528,1.22528 0.65217,0.21739 8.75056,0 9.80221,0 0.64072,0 4.57892,0.16109 4.9011,0 0.51662,-0.25831 0.67732,-1.04262 1.22527,-1.22528 0.77494,-0.2583 1.63371,0 2.45056,0 0.40842,0 0.85997,0.18266 1.22527,0 0.51663,-0.2583 0.70866,-0.96696 1.22528,-1.22527 0.36531,-0.18266 0.93647,0.2888 1.22528,0 0.28879,-0.2888 -0.36531,-1.04262 0,-1.22528 0.73061,-0.3653 1.67562,0.25831 2.45055,0 1.09592,-0.3653 1.4173,-1.93393 2.45055,-2.45055 0.3653,-0.18265 0.85997,0.18265 1.22528,0 0.51662,-0.25831 0.70865,-0.96696 1.22527,-1.22528 0.36531,-0.18265 0.93648,0.28881 1.22528,0 0.2888,-0.2888 -0.36531,-1.04262 0,-1.22527 0.73061,-0.36531 1.67562,0.25831 2.45055,0 0.15221,-0.0507 3.57073,-3.46562 3.67583,-3.67583 0.18265,-0.36531 -0.18266,-0.85997 0,-1.22528 0.25831,-0.51662 0.96697,-0.70865 1.22527,-1.22527 0.26165,-0.5233 0,-5.64201 0,-6.12638 0,-1.20777 0,-3.65833 0,-2.45055 0,0.81685 0,3.2674 0,2.45055 0,-4.96075 0,-1.94039 0,-7.35166"
       style="fill:none;stroke:#000000;stroke-width:3.43077302;stroke-linecap:butt;stroke-linejoin:miter;stroke-miterlimit:4;stroke-opacity:1;stroke-dasharray:none" />
    <path
       sodipodi:nodetypes="cc"
       inkscape:connector-curvature="0"
       id="path3776"
       d="m 598.90858,433.17218 c 19.47209,-10.78228 22.41951,-14.54154 22.41951,-14.54154"
       style="fill:none;stroke:#000000;stroke-width:2.14423323;stroke-linecap:butt;stroke-linejoin:miter;stroke-miterlimit:4;stroke-opacity:1;stroke-dasharray:none" />
    <path
       inkscape:connector-curvature="0"
       id="path3778"
       d="m 593.68698,405.48306 -2.45055,22.78275"
       style="fill:none;stroke:#000000;stroke-width:2.14423323;stroke-linecap:butt;stroke-linejoin:miter;stroke-miterlimit:4;stroke-opacity:1;stroke-dasharray:none" />
    <path
       inkscape:connector-curvature="0"
       id="path3780"
       d="m 584.49741,433.16692 -22.05497,-2.45056"
       style="fill:none;stroke:#000000;stroke-width:2.14423323;stroke-linecap:butt;stroke-linejoin:miter;stroke-miterlimit:4;stroke-opacity:1;stroke-dasharray:none" />
    <path
       inkscape:connector-curvature="0"
       id="path3782"
       d="M 581.43422,437.45538 561.8298,448.48287"
       style="fill:none;stroke:#000000;stroke-width:2.14423323;stroke-linecap:butt;stroke-linejoin:miter;stroke-miterlimit:4;stroke-opacity:1;stroke-dasharray:2.14423315, 4.2884663;stroke-dashoffset:0" />
    <path
       inkscape:connector-curvature="0"
       id="path3784"
       d="m 594.91226,430.71636 14.70331,-19.60441"
       style="fill:none;stroke:#000000;stroke-width:2.14423323;stroke-linecap:butt;stroke-linejoin:miter;stroke-miterlimit:4;stroke-opacity:1;stroke-dasharray:2.14423315, 4.2884663;stroke-dashoffset:0" />
    <path
       inkscape:connector-curvature="0"
       id="path3786"
       d="m 586.33532,427.04054 -17.15386,-25.7308"
       style="fill:none;stroke:#000000;stroke-width:2.14423323;stroke-linecap:butt;stroke-linejoin:miter;stroke-miterlimit:4;stroke-opacity:1;stroke-dasharray:2.14423315, 4.2884663;stroke-dashoffset:0" />
    <path
       inkscape:connector-curvature="0"
       id="path3788"
       d="m 595.87342,435.7916 31.16012,14.35505"
       style="fill:none;stroke:#000000;stroke-width:2.14423323;stroke-linecap:butt;stroke-linejoin:miter;stroke-miterlimit:4;stroke-opacity:1;stroke-dasharray:2.14423315, 4.2884663;stroke-dashoffset:0" />
    <path
       inkscape:connector-curvature="0"
       id="path3800"
       d="m 592.80748,439.02644 17.07494,25.65187"
       style="fill:none;stroke:#000000;stroke-width:2.14423323;stroke-linecap:butt;stroke-linejoin:miter;stroke-miterlimit:4;stroke-opacity:1;stroke-dasharray:none" />
    <path
       sodipodi:nodetypes="cc"
       inkscape:connector-curvature="0"
       id="path3828"
       d="m 672.10465,572.23575 c 0,0 31.85718,56.97534 -15.92859,107.8243"
       style="fill:none;stroke:#ffffff;stroke-width:6.43269968;stroke-linecap:butt;stroke-linejoin:miter;stroke-miterlimit:4;stroke-opacity:1;stroke-dasharray:none" />
  </g>
</svg>
